<?xml version="1.0" encoding="utf-8"?>
<!-- Generator: Adobe Illustrator 28.3.0, SVG Export Plug-In . SVG Version: 6.00 Build 0)  -->
<svg version="1.1" id="Layer_1" xmlns="http://www.w3.org/2000/svg" xmlns:xlink="http://www.w3.org/1999/xlink" x="0px" y="0px"
	 viewBox="0 0 548.5 128.92" style="enable-background:new 0 0 548.5 128.92;" xml:space="preserve">
<style type="text/css">
	.st0{fill:#2D4A3E;}
	.st1{fill:#CBA95C;}
	.st2{fill:#FFFFFF;}
</style>
<rect x="0" y="-326.78" class="st0" width="548.5" height="128.92"/>
<rect y="-491.72" class="st1" width="548.5" height="128.92"/>
<path class="st2" d="M115.88,61.27h-0.8h-7.71h-6.61h-8.62H73.19v8.34h18.79c-1.82,5.18-6.76,8.9-12.56,8.9
	c-7.35,0-13.32-5.96-13.32-13.32c0-7.35,5.96-13.32,13.32-13.32c3.25,0,6.23,1.17,8.54,3.1H98.6c-3.61-6.82-10.77-11.46-19.02-11.46
	c-11.88,0-21.51,9.63-21.51,21.51s9.63,21.51,21.51,21.51c10.31,0,18.92-7.25,21.02-16.93h6.68c-2.14,13.44-13.78,23.7-27.82,23.7
	c-15.56,0-28.17-12.61-28.17-28.17s12.61-28.17,28.17-28.17c11.97,0,22.2,7.47,26.28,18h8.91c-4.41-15.28-18.49-26.45-35.19-26.45
	c-20.23,0-36.62,16.4-36.62,36.62s16.4,36.62,36.62,36.62s36.62-16.4,36.62-36.62C116.09,63.83,116.02,62.54,115.88,61.27z"/>
<g>
	<path class="st2" d="M166.25,57.48c-1.04-3.03-2.86-5.5-5.33-7.54c-2.47-2.03-5.77-3.08-9.9-3.08c-4.67,0-8.69,1.65-11.99,4.95
		c-3.24,3.3-4.89,7.48-4.89,12.59c0,5.06,1.54,9.29,4.62,12.76c3.13,3.41,7.2,5.11,12.32,5.11c4.01,0,7.48-1.15,10.39-3.46
		c2.97-2.31,4.56-5.44,4.78-9.4h-17.98v-4.18h22.82v1.65c0,5.61-1.81,10.28-5.5,14.02c-3.63,3.74-8.52,5.61-14.63,5.61
		c-6.43,0-11.6-2.09-15.56-6.21s-5.94-9.35-5.94-15.62c0-6.21,2.09-11.49,6.21-15.73c4.12-4.23,9.29-6.38,15.45-6.38
		c4.95,0,9.07,1.26,12.37,3.85c3.35,2.53,5.61,5.61,6.82,9.18L166.25,57.48z"/>
	<path class="st2" d="M184.13,68.64v17.43h-4.51V43.02h14.9c5,0,8.74,1.21,11.27,3.57c2.58,2.36,3.85,5.39,3.85,8.96
		c0,3.52-1.1,6.32-3.35,8.47c-2.25,2.15-5.06,3.41-8.47,3.85l13.31,18.2h-5.5l-12.7-17.43H184.13z M184.13,64.52h10.01
		c3.63,0,6.38-0.88,8.19-2.58c1.81-1.71,2.75-3.79,2.75-6.21c0-4.84-3.3-8.47-10.83-8.47h-10.12V64.52z"/>
	<path class="st2" d="M246.17,47.2h-22.44v14.9h20.51v4.18h-20.51V81.9h22.66v4.18h-27.17V43.02h26.95V47.2z"/>
	<path class="st2" d="M282.69,47.2h-22.44v14.9h20.51v4.18h-20.51V81.9h22.66v4.18h-27.17V43.02h26.95V47.2z"/>
	<path class="st2" d="M327.35,86.08h-4.84L296.72,49.4v36.68h-4.46V43.02h5.22l25.41,35.96V43.02h4.45V86.08z"/>
	<path class="st2" d="M348.53,74.25c2.47,2.69,5.66,4.01,9.51,4.01c5.72,0,10.01-2.92,11.11-7.26h-13.09v-8.08h22.38v3.36
		c0,4.29-0.99,8.03-2.97,11.22c-3.9,6.32-10.23,9.24-17.43,9.24c-6.54,0-11.93-2.14-16.11-6.38c-4.12-4.29-6.21-9.57-6.21-15.78
		c0-6.21,2.2-11.49,6.54-15.78c4.4-4.29,9.68-6.43,15.89-6.43c5,0,9.18,1.26,12.54,3.74c3.35,2.47,5.61,5.28,6.76,8.41l-7.86,3.85
		c-0.83-2.03-2.14-3.79-4.07-5.28c-1.87-1.54-4.34-2.31-7.48-2.31c-3.68,0-6.82,1.32-9.4,3.96s-3.85,5.88-3.85,9.79
		C344.79,68.31,346.05,71.56,348.53,74.25z"/>
	<path class="st2" d="M389.45,48.85c4.4-4.34,9.68-6.49,15.89-6.49c6.21,0,11.44,2.14,15.73,6.38c4.34,4.23,6.49,9.46,6.49,15.62
		c0,6.21-2.2,11.55-6.6,15.89c-4.34,4.34-9.62,6.49-15.84,6.49s-11.44-2.14-15.78-6.43c-4.34-4.29-6.49-9.51-6.49-15.73
		C382.85,58.42,385.05,53.19,389.45,48.85z M391.98,64.52c0,3.74,1.27,6.93,3.85,9.62c2.58,2.64,5.72,3.96,9.4,3.96
		s6.82-1.32,9.4-3.96c2.58-2.69,3.85-5.88,3.85-9.62c0-3.74-1.26-6.93-3.85-9.57s-5.72-3.96-9.4-3.96s-6.82,1.32-9.4,3.96
		C393.24,57.59,391.98,60.78,391.98,64.52z"/>
	<path class="st2" d="M443.79,43.02v34.59h18.42v8.47h-27.28V43.02H443.79z"/>
	<path class="st2" d="M499.06,80.14c-4.4,3.96-10.34,5.94-17.87,5.94h-13.03V43.02h13.2c7.53,0,13.47,1.87,17.82,5.66
		c4.34,3.79,6.49,9.02,6.49,15.78C505.66,70.95,503.46,76.18,499.06,80.14z M492.35,54.9c-2.8-2.31-6.38-3.46-10.78-3.46h-4.51
		v26.23h4.4c4.56,0,8.19-1.15,10.94-3.46c2.75-2.36,4.12-5.61,4.12-9.73S495.15,57.15,492.35,54.9z"/>
</g>
<g>
	<path class="st2" d="M338.94,97.14h9.92v1.82h-3.99v10.71h-1.97V98.97h-3.97V97.14z"/>
	<path class="st2" d="M364.17,97.14h4.71c1.46,0,2.54,0.37,3.23,1.1c0.69,0.74,1.04,1.65,1.04,2.75c0,1.75-0.98,3.03-2.66,3.59
		l2.98,5.09h-2.23l-2.72-4.75h-2.38v4.75h-1.97V97.14z M366.14,103.14h2.53c1.74,0,2.48-0.94,2.48-2.1c0-0.96-0.43-2.08-2.48-2.08
		h-2.53V103.14z"/>
	<path class="st2" d="M392.57,97.14h2.32l5.07,12.53h-2.05l-1.14-2.95h-6.15l-1.15,2.95h-2.02L392.57,97.14z M391.34,104.98h4.75
		l-2.38-5.95L391.34,104.98z"/>
	<path class="st2" d="M424.06,107.63c-1.02,1.22-2.85,2.05-5.07,2.05h-4V97.14h3.97c1.86,0,3.44,0.58,4.45,1.46
		c1.55,1.33,2.24,3.23,2.24,4.82C425.65,104.9,425.1,106.39,424.06,107.63z M422.5,100.47c-0.71-0.9-1.99-1.5-3.57-1.5h-1.97v8.88
		h1.95c1.58,0,2.87-0.58,3.59-1.42c0.72-0.88,1.09-1.92,1.09-3.01C423.58,102.39,423.22,101.35,422.5,100.47z"/>
	<path class="st2" d="M441.39,97.14h1.97v12.53h-1.97V97.14z"/>
	<path class="st2" d="M461.87,100.02v9.65h-1.94V97.14h2.32l6.18,9.24v-9.24h1.95v12.53h-2.05L461.87,100.02z"/>
	<path class="st2" d="M496.43,101.48c-0.66-1.6-1.94-2.69-3.92-2.69c-1.23,0-2.26,0.43-3.09,1.31c-0.82,0.88-1.23,1.97-1.23,3.28
		s0.4,2.42,1.22,3.3c0.82,0.88,1.84,1.33,3.09,1.33c2.11,0,3.42-1.17,3.73-2.82h-4.5v-1.79h6.63v0.69c0,1.63-0.53,2.99-1.6,4.1
		c-1.06,1.09-2.46,1.63-4.24,1.63c-1.87,0-3.41-0.61-4.59-1.81s-1.78-2.74-1.78-4.58s0.62-3.38,1.89-4.61
		c1.26-1.23,2.75-1.86,4.5-1.86c1.42,0,2.64,0.37,3.63,1.09c0.99,0.72,1.67,1.58,2.02,2.62L496.43,101.48z"/>
</g>
<path d="M115.88-99.68h-0.8h-7.71h-6.61h-8.62H73.19v8.34h18.79c-1.82,5.18-6.76,8.9-12.56,8.9c-7.35,0-13.32-5.96-13.32-13.32
	c0-7.35,5.96-13.32,13.32-13.32c3.25,0,6.23,1.17,8.54,3.1H98.6c-3.61-6.82-10.77-11.46-19.02-11.46
	c-11.88,0-21.51,9.63-21.51,21.51s9.63,21.51,21.51,21.51c10.31,0,18.92-7.25,21.02-16.93h6.68c-2.14,13.44-13.78,23.7-27.82,23.7
	c-15.56,0-28.17-12.61-28.17-28.17s12.61-28.17,28.17-28.17c11.97,0,22.2,7.47,26.28,18h8.91c-4.41-15.28-18.49-26.45-35.19-26.45
	c-20.23,0-36.62,16.4-36.62,36.62c0,20.23,16.4,36.62,36.62,36.62s36.62-16.4,36.62-36.62C116.09-97.12,116.02-98.41,115.88-99.68z"
	/>
<g>
	<path d="M166.25-103.47c-1.04-3.02-2.86-5.5-5.33-7.53s-5.77-3.08-9.9-3.08c-4.67,0-8.69,1.65-11.99,4.95
		c-3.24,3.3-4.89,7.48-4.89,12.59c0,5.06,1.54,9.29,4.62,12.76c3.13,3.41,7.2,5.11,12.32,5.11c4.01,0,7.48-1.16,10.39-3.46
		c2.97-2.31,4.56-5.44,4.78-9.4h-17.98v-4.18h22.82v1.65c0,5.61-1.81,10.28-5.5,14.02c-3.63,3.74-8.52,5.61-14.63,5.61
		c-6.43,0-11.6-2.09-15.56-6.21c-3.96-4.12-5.94-9.35-5.94-15.62c0-6.21,2.09-11.49,6.21-15.73c4.12-4.23,9.29-6.38,15.45-6.38
		c4.95,0,9.07,1.26,12.37,3.85c3.35,2.53,5.61,5.61,6.82,9.18L166.25-103.47z"/>
	<path d="M184.13-92.31v17.43h-4.51v-43.06h14.9c5,0,8.74,1.21,11.27,3.57c2.58,2.36,3.85,5.39,3.85,8.96c0,3.52-1.1,6.32-3.35,8.47
		c-2.25,2.14-5.06,3.41-8.47,3.85l13.31,18.2h-5.5l-12.7-17.43H184.13z M184.13-96.43h10.01c3.63,0,6.38-0.88,8.19-2.58
		c1.81-1.71,2.75-3.79,2.75-6.21c0-4.84-3.3-8.47-10.83-8.47h-10.12V-96.43z"/>
	<path d="M246.17-113.75h-22.44v14.9h20.51v4.18h-20.51v15.62h22.66v4.18h-27.17v-43.06h26.95V-113.75z"/>
	<path d="M282.69-113.75h-22.44v14.9h20.51v4.18h-20.51v15.62h22.66v4.18h-27.17v-43.06h26.95V-113.75z"/>
	<path d="M327.35-74.87h-4.84l-25.79-36.68v36.68h-4.46v-43.06h5.22l25.41,35.96v-35.96h4.45V-74.87z"/>
	<path d="M348.53-86.7c2.47,2.69,5.66,4.01,9.51,4.01c5.72,0,10.01-2.92,11.11-7.26h-13.09v-8.08h22.38v3.35
		c0,4.29-0.99,8.03-2.97,11.22c-3.9,6.32-10.23,9.24-17.43,9.24c-6.54,0-11.93-2.14-16.11-6.38c-4.12-4.29-6.21-9.57-6.21-15.78
		s2.2-11.49,6.54-15.78c4.4-4.29,9.68-6.43,15.89-6.43c5,0,9.18,1.26,12.54,3.74s5.61,5.28,6.76,8.41l-7.86,3.85
		c-0.83-2.04-2.14-3.79-4.07-5.28c-1.87-1.54-4.34-2.31-7.48-2.31c-3.68,0-6.82,1.32-9.4,3.96s-3.85,5.88-3.85,9.79
		C344.79-92.64,346.05-89.39,348.53-86.7z"/>
	<path d="M389.45-112.1c4.4-4.34,9.68-6.49,15.89-6.49c6.21,0,11.44,2.14,15.73,6.38c4.34,4.23,6.49,9.46,6.49,15.62
		c0,6.21-2.2,11.55-6.6,15.89c-4.34,4.34-9.62,6.49-15.84,6.49s-11.44-2.14-15.78-6.43c-4.34-4.29-6.49-9.51-6.49-15.73
		C382.85-102.53,385.05-107.76,389.45-112.1z M391.98-96.43c0,3.74,1.27,6.93,3.85,9.62c2.58,2.64,5.72,3.96,9.4,3.96
		s6.82-1.32,9.4-3.96c2.58-2.69,3.85-5.88,3.85-9.62s-1.26-6.93-3.85-9.57s-5.72-3.96-9.4-3.96s-6.82,1.32-9.4,3.96
		C393.24-103.36,391.98-100.17,391.98-96.43z"/>
	<path d="M443.79-117.93v34.59h18.42v8.47h-27.28v-43.06H443.79z"/>
	<path d="M499.06-80.81c-4.4,3.96-10.34,5.94-17.87,5.94h-13.03v-43.06h13.2c7.53,0,13.47,1.87,17.82,5.66
		c4.34,3.79,6.49,9.02,6.49,15.78C505.66-90,503.46-84.77,499.06-80.81z M492.35-106.05c-2.8-2.31-6.38-3.46-10.78-3.46h-4.51v26.23
		h4.4c4.56,0,8.19-1.15,10.94-3.46c2.75-2.37,4.12-5.61,4.12-9.73C496.53-100.61,495.15-103.8,492.35-106.05z"/>
</g>
<g>
	<path d="M338.94-63.81h9.92v1.82h-3.99v10.71h-1.97v-10.71h-3.97V-63.81z"/>
	<path d="M364.17-63.81h4.71c1.46,0,2.54,0.37,3.23,1.1c0.69,0.74,1.04,1.65,1.04,2.75c0,1.75-0.98,3.03-2.66,3.59l2.98,5.09h-2.23
		l-2.72-4.75h-2.38v4.75h-1.97V-63.81z M366.14-57.81h2.53c1.74,0,2.48-0.94,2.48-2.1c0-0.96-0.43-2.08-2.48-2.08h-2.53V-57.81z"/>
	<path d="M392.57-63.81h2.32l5.07,12.53h-2.05l-1.14-2.95h-6.15l-1.15,2.95h-2.02L392.57-63.81z M391.34-55.97h4.75l-2.38-5.95
		L391.34-55.97z"/>
	<path d="M424.06-53.32c-1.02,1.22-2.85,2.05-5.07,2.05h-4v-12.53h3.97c1.86,0,3.44,0.58,4.45,1.46c1.55,1.33,2.24,3.23,2.24,4.82
		C425.65-56.05,425.1-54.56,424.06-53.32z M422.5-60.48c-0.71-0.9-1.99-1.5-3.57-1.5h-1.97v8.88h1.95c1.58,0,2.87-0.58,3.59-1.42
		c0.72-0.88,1.09-1.92,1.09-3.01C423.58-58.56,423.22-59.6,422.5-60.48z"/>
	<path d="M441.39-63.81h1.97v12.53h-1.97V-63.81z"/>
	<path d="M461.87-60.93v9.65h-1.94v-12.53h2.32l6.18,9.24v-9.24h1.95v12.53h-2.05L461.87-60.93z"/>
	<path d="M496.43-59.47c-0.66-1.6-1.94-2.69-3.92-2.69c-1.23,0-2.26,0.43-3.09,1.31c-0.82,0.88-1.23,1.97-1.23,3.28
		s0.4,2.42,1.22,3.3c0.82,0.88,1.84,1.33,3.09,1.33c2.11,0,3.42-1.17,3.73-2.82h-4.5v-1.79h6.63v0.69c0,1.63-0.53,2.99-1.6,4.1
		c-1.06,1.09-2.46,1.63-4.24,1.63c-1.87,0-3.41-0.61-4.59-1.81s-1.78-2.74-1.78-4.58s0.62-3.38,1.89-4.61
		c1.26-1.23,2.75-1.86,4.5-1.86c1.42,0,2.64,0.37,3.63,1.09c0.99,0.72,1.67,1.58,2.02,2.62L496.43-59.47z"/>
</g>
<path class="st1" d="M115.88-265.51h-0.8h-7.71h-6.61h-8.62H73.19v8.34h18.79c-1.82,5.18-6.76,8.9-12.56,8.9
	c-7.35,0-13.32-5.96-13.32-13.32c0-7.35,5.96-13.32,13.32-13.32c3.25,0,6.23,1.17,8.54,3.1H98.6c-3.61-6.82-10.77-11.46-19.02-11.46
	c-11.88,0-21.51,9.63-21.51,21.51c0,11.88,9.63,21.51,21.51,21.51c10.31,0,18.92-7.25,21.02-16.93h6.68
	c-2.14,13.44-13.78,23.7-27.82,23.7c-15.56,0-28.17-12.61-28.17-28.17s12.61-28.17,28.17-28.17c11.97,0,22.2,7.47,26.28,18h8.91
	c-4.41-15.28-18.49-26.45-35.19-26.45c-20.23,0-36.62,16.4-36.62,36.62s16.4,36.62,36.62,36.62s36.62-16.4,36.62-36.62
	C116.09-262.95,116.02-264.24,115.88-265.51z"/>
<g>
	<path class="st2" d="M166.25-269.3c-1.04-3.02-2.86-5.5-5.33-7.53c-2.47-2.03-5.77-3.08-9.9-3.08c-4.67,0-8.69,1.65-11.99,4.95
		c-3.24,3.3-4.89,7.48-4.89,12.59c0,5.06,1.54,9.29,4.62,12.76c3.13,3.41,7.2,5.11,12.32,5.11c4.01,0,7.48-1.15,10.39-3.46
		c2.97-2.31,4.56-5.44,4.78-9.4h-17.98v-4.18h22.82v1.65c0,5.61-1.81,10.28-5.5,14.02c-3.63,3.74-8.52,5.61-14.63,5.61
		c-6.43,0-11.6-2.09-15.56-6.21c-3.96-4.12-5.94-9.35-5.94-15.62c0-6.21,2.09-11.49,6.21-15.73c4.12-4.23,9.29-6.38,15.45-6.38
		c4.95,0,9.07,1.26,12.37,3.85c3.35,2.53,5.61,5.61,6.82,9.18L166.25-269.3z"/>
	<path class="st2" d="M184.13-258.13v17.43h-4.51v-43.06h14.9c5,0,8.74,1.21,11.27,3.57c2.58,2.37,3.85,5.39,3.85,8.96
		c0,3.52-1.1,6.32-3.35,8.47c-2.25,2.15-5.06,3.41-8.47,3.85l13.31,18.2h-5.5l-12.7-17.43H184.13z M184.13-262.26h10.01
		c3.63,0,6.38-0.88,8.19-2.58c1.81-1.71,2.75-3.79,2.75-6.21c0-4.84-3.3-8.47-10.83-8.47h-10.12V-262.26z"/>
	<path class="st2" d="M246.17-279.58h-22.44v14.9h20.51v4.18h-20.51v15.62h22.66v4.18h-27.17v-43.06h26.95V-279.58z"/>
	<path class="st2" d="M282.69-279.58h-22.44v14.9h20.51v4.18h-20.51v15.62h22.66v4.18h-27.17v-43.06h26.95V-279.58z"/>
	<path class="st2" d="M327.35-240.7h-4.84l-25.79-36.68v36.68h-4.46v-43.06h5.22l25.41,35.96v-35.96h4.45V-240.7z"/>
	<path class="st1" d="M348.53-252.52c2.47,2.69,5.66,4.01,9.51,4.01c5.72,0,10.01-2.91,11.11-7.26h-13.09v-8.08h22.38v3.35
		c0,4.29-0.99,8.03-2.97,11.22c-3.9,6.32-10.23,9.24-17.43,9.24c-6.54,0-11.93-2.14-16.11-6.38c-4.12-4.29-6.21-9.57-6.21-15.78
		c0-6.21,2.2-11.49,6.54-15.78c4.4-4.29,9.68-6.43,15.89-6.43c5,0,9.18,1.26,12.54,3.74c3.35,2.47,5.61,5.28,6.76,8.41l-7.86,3.85
		c-0.83-2.03-2.14-3.79-4.07-5.28c-1.87-1.54-4.34-2.31-7.48-2.31c-3.68,0-6.82,1.32-9.4,3.96s-3.85,5.88-3.85,9.79
		C344.79-258.46,346.05-255.22,348.53-252.52z"/>
	<path class="st1" d="M389.45-277.93c4.4-4.34,9.68-6.49,15.89-6.49c6.21,0,11.44,2.14,15.73,6.38c4.34,4.23,6.49,9.46,6.49,15.62
		c0,6.21-2.2,11.55-6.6,15.89c-4.34,4.34-9.62,6.49-15.84,6.49s-11.44-2.14-15.78-6.43c-4.34-4.29-6.49-9.51-6.49-15.73
		C382.85-268.36,385.05-273.58,389.45-277.93z M391.98-262.26c0,3.74,1.27,6.93,3.85,9.62c2.58,2.64,5.72,3.96,9.4,3.96
		s6.82-1.32,9.4-3.96c2.58-2.69,3.85-5.88,3.85-9.62s-1.26-6.93-3.85-9.57s-5.72-3.96-9.4-3.96s-6.82,1.32-9.4,3.96
		C393.24-269.19,391.98-266,391.98-262.26z"/>
	<path class="st1" d="M443.79-283.76v34.59h18.42v8.47h-27.28v-43.06H443.79z"/>
	<path class="st1" d="M499.06-246.64c-4.4,3.96-10.34,5.94-17.87,5.94h-13.03v-43.06h13.2c7.53,0,13.47,1.87,17.82,5.66
		c4.34,3.79,6.49,9.02,6.49,15.78C505.66-255.82,503.46-250.6,499.06-246.64z M492.35-271.88c-2.8-2.31-6.38-3.46-10.78-3.46h-4.51
		v26.23h4.4c4.56,0,8.19-1.16,10.94-3.46c2.75-2.36,4.12-5.61,4.12-9.73C496.53-266.44,495.15-269.63,492.35-271.88z"/>
</g>
<g>
	<path class="st2" d="M338.94-229.64h9.92v1.83h-3.99v10.71h-1.97v-10.71h-3.97V-229.64z"/>
	<path class="st2" d="M364.17-229.64h4.71c1.46,0,2.54,0.37,3.23,1.1c0.69,0.74,1.04,1.65,1.04,2.75c0,1.74-0.98,3.02-2.66,3.58
		l2.98,5.09h-2.23l-2.72-4.75h-2.38v4.75h-1.97V-229.64z M366.14-223.63h2.53c1.74,0,2.48-0.94,2.48-2.1c0-0.96-0.43-2.08-2.48-2.08
		h-2.53V-223.63z"/>
	<path class="st2" d="M392.57-229.64h2.32l5.07,12.53h-2.05l-1.14-2.95h-6.15l-1.15,2.95h-2.02L392.57-229.64z M391.34-221.79h4.75
		l-2.38-5.96L391.34-221.79z"/>
	<path class="st2" d="M424.06-219.15c-1.02,1.22-2.85,2.05-5.07,2.05h-4v-12.53h3.97c1.86,0,3.44,0.58,4.45,1.46
		c1.55,1.33,2.24,3.23,2.24,4.82C425.65-221.87,425.1-220.38,424.06-219.15z M422.5-226.31c-0.71-0.9-1.99-1.5-3.57-1.5h-1.97v8.88
		h1.95c1.58,0,2.87-0.58,3.59-1.42c0.72-0.88,1.09-1.92,1.09-3.01C423.58-224.38,423.22-225.43,422.5-226.31z"/>
	<path class="st2" d="M441.39-229.64h1.97v12.53h-1.97V-229.64z"/>
	<path class="st2" d="M461.87-226.75v9.65h-1.94v-12.53h2.32l6.18,9.24v-9.24h1.95v12.53h-2.05L461.87-226.75z"/>
	<path class="st2" d="M496.43-225.3c-0.66-1.6-1.94-2.69-3.92-2.69c-1.23,0-2.26,0.43-3.09,1.31c-0.82,0.88-1.23,1.97-1.23,3.28
		s0.4,2.42,1.22,3.3c0.82,0.88,1.84,1.33,3.09,1.33c2.11,0,3.42-1.17,3.73-2.82h-4.5v-1.79h6.63v0.69c0,1.63-0.53,2.99-1.6,4.1
		c-1.06,1.09-2.46,1.63-4.24,1.63c-1.87,0-3.41-0.61-4.59-1.81c-1.18-1.2-1.78-2.74-1.78-4.58s0.62-3.38,1.89-4.61
		c1.26-1.23,2.75-1.86,4.5-1.86c1.42,0,2.64,0.37,3.63,1.09c0.99,0.72,1.67,1.58,2.02,2.62L496.43-225.3z"/>
</g>
<path class="st2" d="M115.88-430.45h-0.8h-7.71h-6.61h-8.62H73.19v8.34h18.79c-1.82,5.18-6.76,8.9-12.56,8.9
	c-7.35,0-13.32-5.96-13.32-13.32c0-7.35,5.96-13.32,13.32-13.32c3.25,0,6.23,1.17,8.54,3.1H98.6c-3.61-6.82-10.77-11.46-19.02-11.46
	c-11.88,0-21.51,9.63-21.51,21.51s9.63,21.51,21.51,21.51c10.31,0,18.92-7.25,21.02-16.93h6.68c-2.14,13.44-13.78,23.7-27.82,23.7
	c-15.56,0-28.17-12.61-28.17-28.17c0-15.56,12.61-28.17,28.17-28.17c11.97,0,22.2,7.47,26.28,18h8.91
	c-4.41-15.28-18.49-26.45-35.19-26.45c-20.23,0-36.62,16.4-36.62,36.62s16.4,36.62,36.62,36.62s36.62-16.4,36.62-36.62
	C116.09-427.89,116.02-429.18,115.88-430.45z"/>
<g>
	<path class="st0" d="M166.25-434.24c-1.04-3.02-2.86-5.5-5.33-7.53c-2.47-2.03-5.77-3.08-9.9-3.08c-4.67,0-8.69,1.65-11.99,4.95
		c-3.24,3.3-4.89,7.48-4.89,12.59c0,5.06,1.54,9.29,4.62,12.76c3.13,3.41,7.2,5.11,12.32,5.11c4.01,0,7.48-1.15,10.39-3.46
		c2.97-2.31,4.56-5.44,4.78-9.4h-17.98v-4.18h22.82v1.65c0,5.61-1.81,10.28-5.5,14.02c-3.63,3.74-8.52,5.61-14.63,5.61
		c-6.43,0-11.6-2.09-15.56-6.21c-3.96-4.12-5.94-9.35-5.94-15.62c0-6.21,2.09-11.49,6.21-15.73c4.12-4.23,9.29-6.38,15.45-6.38
		c4.95,0,9.07,1.26,12.37,3.85c3.35,2.53,5.61,5.61,6.82,9.18L166.25-434.24z"/>
	<path class="st0" d="M184.13-423.07v17.43h-4.51v-43.06h14.9c5,0,8.74,1.21,11.27,3.57c2.58,2.37,3.85,5.39,3.85,8.96
		c0,3.52-1.1,6.32-3.35,8.47c-2.25,2.15-5.06,3.41-8.47,3.85l13.31,18.2h-5.5l-12.7-17.43H184.13z M184.13-427.2h10.01
		c3.63,0,6.38-0.88,8.19-2.58c1.81-1.71,2.75-3.79,2.75-6.21c0-4.84-3.3-8.47-10.83-8.47h-10.12V-427.2z"/>
	<path class="st0" d="M246.17-444.52h-22.44v14.9h20.51v4.18h-20.51v15.62h22.66v4.18h-27.17v-43.06h26.95V-444.52z"/>
	<path class="st0" d="M282.69-444.52h-22.44v14.9h20.51v4.18h-20.51v15.62h22.66v4.18h-27.17v-43.06h26.95V-444.52z"/>
	<path class="st0" d="M327.35-405.64h-4.84l-25.79-36.68v36.68h-4.46v-43.06h5.22l25.41,35.96v-35.96h4.45V-405.64z"/>
	<path class="st2" d="M348.53-417.46c2.47,2.69,5.66,4.01,9.51,4.01c5.72,0,10.01-2.91,11.11-7.26h-13.09v-8.08h22.38v3.35
		c0,4.29-0.99,8.03-2.97,11.22c-3.9,6.32-10.23,9.24-17.43,9.24c-6.54,0-11.93-2.14-16.11-6.38c-4.12-4.29-6.21-9.57-6.21-15.78
		c0-6.21,2.2-11.49,6.54-15.78c4.4-4.29,9.68-6.43,15.89-6.43c5,0,9.18,1.26,12.54,3.74c3.35,2.47,5.61,5.28,6.76,8.41l-7.86,3.85
		c-0.83-2.03-2.14-3.79-4.07-5.28c-1.87-1.54-4.34-2.31-7.48-2.31c-3.68,0-6.82,1.32-9.4,3.96s-3.85,5.88-3.85,9.79
		C344.79-423.4,346.05-420.16,348.53-417.46z"/>
	<path class="st2" d="M389.45-442.87c4.4-4.34,9.68-6.49,15.89-6.49c6.21,0,11.44,2.14,15.73,6.38c4.34,4.23,6.49,9.46,6.49,15.62
		c0,6.21-2.2,11.55-6.6,15.89c-4.34,4.34-9.62,6.49-15.84,6.49s-11.44-2.14-15.78-6.43c-4.34-4.29-6.49-9.51-6.49-15.73
		C382.85-433.3,385.05-438.53,389.45-442.87z M391.98-427.2c0,3.74,1.27,6.93,3.85,9.62c2.58,2.64,5.72,3.96,9.4,3.96
		s6.82-1.32,9.4-3.96c2.58-2.69,3.85-5.88,3.85-9.62s-1.26-6.93-3.85-9.57s-5.72-3.96-9.4-3.96s-6.82,1.32-9.4,3.96
		C393.24-434.13,391.98-430.94,391.98-427.2z"/>
	<path class="st2" d="M443.79-448.7v34.59h18.42v8.47h-27.28v-43.06H443.79z"/>
	<path class="st2" d="M499.06-411.58c-4.4,3.96-10.34,5.94-17.87,5.94h-13.03v-43.06h13.2c7.53,0,13.47,1.87,17.82,5.66
		c4.34,3.79,6.49,9.02,6.49,15.78C505.66-420.76,503.46-415.54,499.06-411.58z M492.35-436.82c-2.8-2.31-6.38-3.46-10.78-3.46h-4.51
		v26.23h4.4c4.56,0,8.19-1.16,10.94-3.46c2.75-2.36,4.12-5.61,4.12-9.73C496.53-431.38,495.15-434.57,492.35-436.82z"/>
</g>
<g>
	<path class="st0" d="M338.94-394.58h9.92v1.82h-3.99v10.71h-1.97v-10.71h-3.97V-394.58z"/>
	<path class="st0" d="M364.17-394.58h4.71c1.46,0,2.54,0.37,3.23,1.1c0.69,0.74,1.04,1.65,1.04,2.75c0,1.75-0.98,3.03-2.66,3.59
		l2.98,5.09h-2.23l-2.72-4.75h-2.38v4.75h-1.97V-394.58z M366.14-388.57h2.53c1.74,0,2.48-0.94,2.48-2.1c0-0.96-0.43-2.08-2.48-2.08
		h-2.53V-388.57z"/>
	<path class="st0" d="M392.57-394.58h2.32l5.07,12.53h-2.05l-1.14-2.95h-6.15l-1.15,2.95h-2.02L392.57-394.58z M391.34-386.73h4.75
		l-2.38-5.95L391.34-386.73z"/>
	<path class="st0" d="M424.06-384.09c-1.02,1.22-2.85,2.05-5.07,2.05h-4v-12.53h3.97c1.86,0,3.44,0.58,4.45,1.46
		c1.55,1.33,2.24,3.23,2.24,4.82C425.65-386.81,425.1-385.32,424.06-384.09z M422.5-391.25c-0.71-0.9-1.99-1.5-3.57-1.5h-1.97v8.88
		h1.95c1.58,0,2.87-0.58,3.59-1.42c0.72-0.88,1.09-1.92,1.09-3.01C423.58-389.33,423.22-390.37,422.5-391.25z"/>
	<path class="st0" d="M441.39-394.58h1.97v12.53h-1.97V-394.58z"/>
	<path class="st0" d="M461.87-391.69v9.65h-1.94v-12.53h2.32l6.18,9.24v-9.24h1.95v12.53h-2.05L461.87-391.69z"/>
	<path class="st0" d="M496.43-390.24c-0.66-1.6-1.94-2.69-3.92-2.69c-1.23,0-2.26,0.43-3.09,1.31c-0.82,0.88-1.23,1.97-1.23,3.28
		s0.4,2.42,1.22,3.3c0.82,0.88,1.84,1.33,3.09,1.33c2.11,0,3.42-1.17,3.73-2.82h-4.5v-1.79h6.63v0.69c0,1.63-0.53,2.99-1.6,4.1
		c-1.06,1.09-2.46,1.63-4.24,1.63c-1.87,0-3.41-0.61-4.59-1.81s-1.78-2.74-1.78-4.58s0.62-3.38,1.89-4.61
		c1.26-1.23,2.75-1.86,4.5-1.86c1.42,0,2.64,0.37,3.63,1.09c0.99,0.72,1.67,1.58,2.02,2.62L496.43-390.24z"/>
</g>
<path class="st1" d="M115.88-592.29h-0.8h-7.71h-6.61h-8.62H73.19v8.34h18.79c-1.82,5.18-6.76,8.9-12.56,8.9
	c-7.35,0-13.32-5.96-13.32-13.32c0-7.35,5.96-13.32,13.32-13.32c3.25,0,6.23,1.17,8.54,3.1H98.6c-3.61-6.82-10.77-11.46-19.02-11.46
	c-11.88,0-21.51,9.63-21.51,21.51c0,11.88,9.63,21.51,21.51,21.51c10.31,0,18.92-7.25,21.02-16.93h6.68
	c-2.14,13.44-13.78,23.7-27.82,23.7c-15.56,0-28.17-12.61-28.17-28.17s12.61-28.17,28.17-28.17c11.97,0,22.2,7.47,26.28,18h8.91
	c-4.41-15.28-18.49-26.45-35.19-26.45c-20.23,0-36.62,16.4-36.62,36.62s16.4,36.62,36.62,36.62s36.62-16.4,36.62-36.62
	C116.09-589.72,116.02-591.01,115.88-592.29z"/>
<g>
	<path class="st0" d="M166.25-596.07c-1.04-3.02-2.86-5.5-5.33-7.53c-2.47-2.03-5.77-3.08-9.9-3.08c-4.67,0-8.69,1.65-11.99,4.95
		c-3.24,3.3-4.89,7.48-4.89,12.59c0,5.06,1.54,9.29,4.62,12.76c3.13,3.41,7.2,5.11,12.32,5.11c4.01,0,7.48-1.16,10.39-3.46
		c2.97-2.31,4.56-5.44,4.78-9.4h-17.98v-4.18h22.82v1.65c0,5.61-1.81,10.28-5.5,14.02c-3.63,3.74-8.52,5.61-14.63,5.61
		c-6.43,0-11.6-2.09-15.56-6.21c-3.96-4.12-5.94-9.35-5.94-15.62c0-6.21,2.09-11.49,6.21-15.73c4.12-4.23,9.29-6.38,15.45-6.38
		c4.95,0,9.07,1.26,12.37,3.85c3.35,2.53,5.61,5.61,6.82,9.18L166.25-596.07z"/>
	<path class="st0" d="M184.13-584.91v17.43h-4.51v-43.06h14.9c5,0,8.74,1.21,11.27,3.57c2.58,2.36,3.85,5.39,3.85,8.96
		c0,3.52-1.1,6.32-3.35,8.47c-2.25,2.15-5.06,3.41-8.47,3.85l13.31,18.2h-5.5l-12.7-17.43H184.13z M184.13-589.03h10.01
		c3.63,0,6.38-0.88,8.19-2.58c1.81-1.71,2.75-3.79,2.75-6.21c0-4.84-3.3-8.47-10.83-8.47h-10.12V-589.03z"/>
	<path class="st0" d="M246.17-606.36h-22.44v14.9h20.51v4.18h-20.51v15.62h22.66v4.18h-27.17v-43.06h26.95V-606.36z"/>
	<path class="st0" d="M282.69-606.36h-22.44v14.9h20.51v4.18h-20.51v15.62h22.66v4.18h-27.17v-43.06h26.95V-606.36z"/>
	<path class="st0" d="M327.35-567.48h-4.84l-25.79-36.68v36.68h-4.46v-43.06h5.22l25.41,35.97v-35.97h4.45V-567.48z"/>
	<path class="st1" d="M348.53-579.3c2.47,2.69,5.66,4.01,9.51,4.01c5.72,0,10.01-2.92,11.11-7.26h-13.09v-8.08h22.38v3.35
		c0,4.29-0.99,8.03-2.97,11.22c-3.9,6.32-10.23,9.24-17.43,9.24c-6.54,0-11.93-2.14-16.11-6.38c-4.12-4.29-6.21-9.57-6.21-15.78
		c0-6.21,2.2-11.49,6.54-15.78c4.4-4.29,9.68-6.43,15.89-6.43c5,0,9.18,1.26,12.54,3.74c3.35,2.47,5.61,5.28,6.76,8.41l-7.86,3.85
		c-0.83-2.03-2.14-3.79-4.07-5.28c-1.87-1.54-4.34-2.31-7.48-2.31c-3.68,0-6.82,1.32-9.4,3.96s-3.85,5.88-3.85,9.79
		C344.79-585.24,346.05-581.99,348.53-579.3z"/>
	<path class="st1" d="M389.45-604.71c4.4-4.34,9.68-6.49,15.89-6.49c6.21,0,11.44,2.14,15.73,6.38c4.34,4.23,6.49,9.46,6.49,15.62
		c0,6.21-2.2,11.55-6.6,15.89c-4.34,4.34-9.62,6.49-15.84,6.49s-11.44-2.14-15.78-6.43c-4.34-4.29-6.49-9.51-6.49-15.73
		C382.85-595.14,385.05-600.36,389.45-604.71z M391.98-589.03c0,3.74,1.27,6.93,3.85,9.62c2.58,2.64,5.72,3.96,9.4,3.96
		s6.82-1.32,9.4-3.96c2.58-2.69,3.85-5.88,3.85-9.62s-1.26-6.93-3.85-9.57s-5.72-3.96-9.4-3.96s-6.82,1.32-9.4,3.96
		C393.24-595.96,391.98-592.77,391.98-589.03z"/>
	<path class="st1" d="M443.79-610.54v34.59h18.42v8.47h-27.28v-43.06H443.79z"/>
	<path class="st1" d="M499.06-573.42c-4.4,3.96-10.34,5.94-17.87,5.94h-13.03v-43.06h13.2c7.53,0,13.47,1.87,17.82,5.66
		c4.34,3.79,6.49,9.02,6.49,15.78C505.66-582.6,503.46-577.38,499.06-573.42z M492.35-598.66c-2.8-2.31-6.38-3.46-10.78-3.46h-4.51
		v26.23h4.4c4.56,0,8.19-1.15,10.94-3.46c2.75-2.37,4.12-5.61,4.12-9.73S495.15-596.4,492.35-598.66z"/>
</g>
<g>
	<path class="st0" d="M338.94-556.41h9.92v1.82h-3.99v10.71h-1.97v-10.71h-3.97V-556.41z"/>
	<path class="st0" d="M364.17-556.41h4.71c1.46,0,2.54,0.37,3.23,1.1c0.69,0.74,1.04,1.65,1.04,2.75c0,1.75-0.98,3.03-2.66,3.59
		l2.98,5.09h-2.23l-2.72-4.75h-2.38v4.75h-1.97V-556.41z M366.14-550.41h2.53c1.74,0,2.48-0.94,2.48-2.1c0-0.96-0.43-2.08-2.48-2.08
		h-2.53V-550.41z"/>
	<path class="st0" d="M392.57-556.41h2.32l5.07,12.53h-2.05l-1.14-2.95h-6.15l-1.15,2.95h-2.02L392.57-556.41z M391.34-548.57h4.75
		l-2.38-5.95L391.34-548.57z"/>
	<path class="st0" d="M424.06-545.93c-1.02,1.22-2.85,2.05-5.07,2.05h-4v-12.53h3.97c1.86,0,3.44,0.58,4.45,1.46
		c1.55,1.33,2.24,3.23,2.24,4.82C425.65-548.65,425.1-547.16,424.06-545.93z M422.5-553.08c-0.71-0.9-1.99-1.5-3.57-1.5h-1.97v8.88
		h1.95c1.58,0,2.87-0.58,3.59-1.42c0.72-0.88,1.09-1.92,1.09-3.01C423.58-551.16,423.22-552.2,422.5-553.08z"/>
	<path class="st0" d="M441.39-556.41h1.97v12.53h-1.97V-556.41z"/>
	<path class="st0" d="M461.87-553.53v9.65h-1.94v-12.53h2.32l6.18,9.24v-9.24h1.95v12.53h-2.05L461.87-553.53z"/>
	<path class="st0" d="M496.43-552.07c-0.66-1.6-1.94-2.69-3.92-2.69c-1.23,0-2.26,0.43-3.09,1.31c-0.82,0.88-1.23,1.97-1.23,3.28
		s0.4,2.42,1.22,3.3c0.82,0.88,1.84,1.33,3.09,1.33c2.11,0,3.42-1.17,3.73-2.82h-4.5v-1.79h6.63v0.69c0,1.63-0.53,2.99-1.6,4.1
		c-1.06,1.09-2.46,1.63-4.24,1.63c-1.87,0-3.41-0.61-4.59-1.81s-1.78-2.74-1.78-4.58s0.62-3.38,1.89-4.61
		c1.26-1.23,2.75-1.86,4.5-1.86c1.42,0,2.64,0.37,3.63,1.09c0.99,0.72,1.67,1.58,2.02,2.62L496.43-552.07z"/>
</g>
</svg>
